# xmcd
#
# Track frame offsets: 
#        150
#        13429
#        33162
#        48623
#        63849
#        76543
#        99661
#        116697
#        138229
#        156680
#        168464
#        185208
#
# Disc length: 2654 seconds
#
# Revision: 0
# Processed by: cddbd v1.5.2PL0 Copyright (c) Steve Scherf et al.
# Submitted via: ExactAudioCopy v0.99pb5
#
DISCID=a40a5c0c
DTITLE=Perry Weber and The Devilles - The Riot Act
DYEAR=2009
DGENRE=Blues
TTITLE0=Got My Broom
TTITLE1=Riot Act
TTITLE2=Hot Little Mama
TTITLE3=Bernie's Bounce
TTITLE4=Cuttin In
TTITLE5=Don't Take Advantage
TTITLE6=My Cake
TTITLE7=Big Jim
TTITLE8=The Boy
TTITLE9=Slam Hammer
TTITLE10=Pent Up
TTITLE11=10 Long Years (Bonus Track)
EXTD=
EXTT0=
EXTT1=
EXTT2=
EXTT3=
EXTT4=
EXTT5=
EXTT6=
EXTT7=
EXTT8=
EXTT9=
EXTT10=
EXTT11=
PLAYORDER=
